<?xml version="1.0" encoding="utf-8"?>
<!-- Generator: Adobe Illustrator 28.0.0, SVG Export Plug-In . SVG Version: 6.00 Build 0)  -->
<svg version="1.1" id="Layer_1" xmlns="http://www.w3.org/2000/svg" xmlns:xlink="http://www.w3.org/1999/xlink" x="0px" y="0px"
	 viewBox="0 0 1533.6 245.3" style="enable-background:new 0 0 1533.6 245.3;" xml:space="preserve">
<style type="text/css">
	.st0{fill:#B1E0E7;}
	.st1{fill:#FFFFFF;}
</style>
<g>
	<path class="st0" d="M107.3,26.4h52.2L95,103.2l70.3,85.4h-54.6l-54.4-70.3h-0.4v70.3H13.8V26.4h42.1v66.9h0.4L107.3,26.4z"/>
	<path class="st0" d="M294.3,188.6h-39.1v-12.3h-0.4c-6.9,11-20.4,15.9-33.3,15.9c-32.7,0-55.7-27.3-55.7-58.9
		c0-31.6,22.6-58.7,55.3-58.7c12.7,0,26,4.7,34.2,14.4V78.3h39.1V188.6z M206.2,133.5c0,14,9.2,24.7,25.2,24.7
		c15.9,0,25.2-10.8,25.2-24.7c0-13.5-9.2-24.9-25.2-24.9C215.4,108.6,206.2,120,206.2,133.5z"/>
	<path class="st0" d="M373,138l27.7-59.8H424l27.7,59.8l27.7-59.8h43.2L465,188.6h-25.4l-27.3-60.4l-27.3,60.4h-25.4L302.1,78.3
		h43.4L373,138z"/>
	<path class="st0" d="M569.3,92h0.4c9.2-12.3,20.6-17.4,34.8-17.4c15.9,0,29.7,6.5,37.6,21.1c7.5-13.8,22.4-21.1,37.4-21.1
		c27.9,0,37.6,18.3,37.6,43.6v70.3h-39.1v-52.7c0-11.4,0.4-30.1-16.1-30.1c-18.1,0-18.7,17-18.7,30.1v52.7h-39.1v-52.7
		c0-12.3,0-31-17.4-31s-17.4,18.7-17.4,31v52.7h-39.1V78.3h39.1V92z"/>
	<path class="st1" d="M844.5,89V26.4h42.1v162.1h-42.1v-66.4h-60.8v66.4h-42.1V26.4h42.1V89H844.5z"/>
	<path class="st1" d="M950.3,92h0.4c9.2-12.3,20.6-17.4,34.8-17.4c15.9,0,29.7,6.5,37.6,21.1c7.5-13.8,22.4-21.1,37.4-21.1
		c27.9,0,37.6,18.3,37.6,43.6v70.3h-39.1v-52.7c0-11.4,0.4-30.1-16.1-30.1c-18.1,0-18.7,17-18.7,30.1v52.7h-39.1v-52.7
		c0-12.3,0-31-17.4-31c-17.4,0-17.4,18.7-17.4,31v52.7h-39.1V78.3h39.1V92z"/>
	<path class="st1" d="M1246.3,133.5c0,37.4-31,58.7-66.4,58.7c-35.3,0-66.4-21.1-66.4-58.7c0-37.6,31-58.9,66.4-58.9
		S1246.3,95.9,1246.3,133.5z M1154.8,133.5c0,14,9.2,24.7,25.2,24.7c15.9,0,25.2-10.8,25.2-24.7c0-13.5-9.2-24.9-25.2-24.9
		C1164,108.6,1154.8,120,1154.8,133.5z"/>
	<path class="st1" d="M1386.5,133.5c0,37.4-31,58.7-66.4,58.7c-35.3,0-66.4-21.1-66.4-58.7c0-37.6,31-58.9,66.4-58.9
		C1355.6,74.6,1386.5,95.9,1386.5,133.5z M1294.9,133.5c0,14,9.2,24.7,25.2,24.7c15.9,0,25.2-10.8,25.2-24.7
		c0-13.5-9.2-24.9-25.2-24.9C1304.2,108.6,1294.9,120,1294.9,133.5z"/>
	<path class="st1" d="M1400.7,10.1h39.1V89c8.4-9.7,21.5-14.4,34.2-14.4c32.7,0,55.3,27.1,55.3,58.7c0,31.8-22.8,58.9-55.7,58.9
		c-12.9,0-26.2-4.9-33.3-15.9h-0.4v12.3h-39.1V10.1z M1438.6,133.5c0,14,9.2,24.7,25.2,24.7c15.9,0,25.2-10.8,25.2-24.7
		c0-13.5-9.2-24.9-25.2-24.9C1447.8,108.6,1438.6,120,1438.6,133.5z"/>
</g>
<g>
</g>
<g>
</g>
<g>
</g>
<g>
</g>
<g>
</g>
<g>
</g>
</svg>
